<svg t="1706337462198" class="icon" viewBox="0 0 1024 1024" version="1.1" xmlns="http://www.w3.org/2000/svg" p-id="15034" width="200" height="200"><path d="M926.56 866.11h-0.08l-28.18 0.07v-544a32 32 0 0 0-32-32H635.76V97a32 32 0 0 0-32-32h-439.9a32 32 0 0 0-32 32v771l-37.05 0.09a30 30 0 0 0 0.07 60H95l831.66-2a30 30 0 0 0-0.07-60zM838.3 350.22v516.1l-201.19 0.49V350.22zM191.87 125h383.89v742l-90.19 0.21V673a27.5 27.5 0 0 0-27.5-27.5h-150a27.5 27.5 0 0 0-27.5 27.5v194.67l-88.7 0.21z m238.7 742.3l-95 0.23v-167h95z" p-id="15035" fill="#ffffff"></path><path d="M287.05 314.15h192a27.5 27.5 0 1 0 0-55h-192a27.5 27.5 0 0 0 0 55zM287.05 505.18h192a27.5 27.5 0 0 0 0-55h-192a27.5 27.5 0 0 0 0 55z" p-id="15036" fill="#ffffff"></path></svg>